<?xml version="1.0" encoding="utf-8"?>
<!-- Generator: Adobe Illustrator 19.0.0, SVG Export Plug-In . SVG Version: 6.00 Build 0)  -->
<svg version="1.1" id="Layer_1" xmlns="http://www.w3.org/2000/svg" xmlns:xlink="http://www.w3.org/1999/xlink" x="0px" y="0px"
	 width="1400px" height="980px" viewBox="0 0 1400 980" style="enable-background:new 0 0 1400 980;" xml:space="preserve">
<style type="text/css">
	.st0{fill:url(#XMLID_2_);}
	.st1{fill:#456E72;}
	.st2{fill:#4B797C;}
	.st3{fill:#3F696D;}
	.st4{fill:#31535B;}
	.st5{fill:#345860;}
	.st6{fill:#25414C;}
	.st7{fill:#14222D;}
	.st8{opacity:0.59;fill:url(#XMLID_3_);}
	.st9{fill:#F2F2F2;}
	.st10{font-family:'OpenSans-Light';}
	.st11{font-size:31.7243px;}
	.st12{letter-spacing:1;}
	.st13{fill:none;}
	.st14{font-size:12px;}
	.st15{letter-spacing:2;}
</style>
<g id="XMLID_219_">
	<linearGradient id="XMLID_2_" gradientUnits="userSpaceOnUse" x1="700" y1="9.7036" x2="700" y2="889.388">
		<stop  offset="0" style="stop-color:#D7C8A6"/>
		<stop  offset="0.3997" style="stop-color:#ABBAA5"/>
		<stop  offset="0.5594" style="stop-color:#94AD9D"/>
		<stop  offset="0.6685" style="stop-color:#8BA89A"/>
		<stop  offset="1" style="stop-color:#2D4C56"/>
	</linearGradient>
	<rect id="XMLID_26615_" x="0" y="-0.5" class="st0" width="1400" height="981.1"/>
	<path id="XMLID_26614_" class="st1" d="M471.9,553.1c-48.3-26.7-116.3-26.7-164.6,0l-107.8,59.5L18.5,542.4
		c-5.9-3.3-12.1-6.1-18.5-8.6v233.9h519.7l38.9-161.1L471.9,553.1z"/>
	<path id="XMLID_26613_" class="st2" d="M1400,504.5c-22.6,2.3-44.4,8.6-63.3,19l-107.8,59.5l-180.9-70.2
		c-48.3-26.7-116.3-26.7-164.6,0L558.6,669.7l180.8,62l272.5,6.6h388V504.5z"/>
	<path id="XMLID_26612_" class="st3" d="M1400,851.5v-57.4l-399.9-194.4c0.3-0.8,0.4-1.9,0.4-3.3c0-5.6-5.1-14.6-5.1-14.6
		s-4.3,7.6-5,13.2l-3.2-1.6c0.4-1.2,0.6-2.8,0.6-4.9c0-8.5-7.8-22.2-7.8-22.2s-6.5,11.4-7.6,19.9l-21.9-10.7V573
		c2.4-0.1,4.2-0.7,4.2-5.7c0-5.6-5.1-14.6-5.1-14.6s-5.1,9-5.1,14.6c0,5,1.8,5.7,4.2,5.7v1.7l-12.1-5.9v-3c3.7-0.1,6.4-1.1,6.4-8.7
		c0-8.5-7.8-22.2-7.8-22.2s-7.8,13.6-7.8,22.2c0,7.6,2.8,8.6,6.4,8.7v1.7l-9.4-4.6c0-5.6-5.1-14.5-5.1-14.5s-2.8,4.9-4.2,9.7
		c-1.7-0.9-3.4-1.7-5.1-2.5v-0.2c2.4-0.1,4.2-0.7,4.2-5.7c0-5.6-5.1-14.6-5.1-14.6s-5.1,9-5.1,14.6c0,1.4,0.2,2.5,0.4,3.3
		c-20.5-9.3-42.4-16.3-65.2-20.9c-0.3-5.6-5.1-14-5.1-14s-3.8,6.7-4.9,12.2c-2-0.3-4-0.7-6-1v-2.5c2.4-0.1,4.2-0.7,4.2-5.7
		c0-5.6-5.1-14.6-5.1-14.6s-5.1,9-5.1,14.6c0,5,1.8,5.7,4.2,5.7v2.3c-2.4-0.4-4.8-0.7-7.2-1c0.2-0.7,0.3-1.6,0.3-2.8
		c0-5.6-5.1-14.6-5.1-14.6s-5.1,9-5.1,14.6c0,0.6,0,1.2,0.1,1.7c-57.7-5.5-117.5,3.5-167.9,26.9c-1.5-4.5-4-8.9-4-8.9
		s-4.4,7.7-5,13.3c-1.9,1-3.7,1.9-5.5,2.9v-1.8c2.4-0.1,4.2-0.7,4.2-5.7c0-5.6-5.1-14.6-5.1-14.6s-5.1,9-5.1,14.6
		c0,5,1.8,5.7,4.2,5.7v2.8l-5.3,2.6c0.1-0.6,0.2-1.3,0.2-2.1c0-5.6-5.1-14.6-5.1-14.6s-5.1,9-5.1,14.6c0,4.1,1.2,5.2,3,5.6l-3.4,1.7
		c-1.3-5.3-4.7-11.3-4.7-11.3s-5.1,9-5.1,14.6c0,0.5,0,1,0.1,1.4l-71.5,34.8c-1.3-5.3-4.7-11.2-4.7-11.2s-5.1,9-5.1,14.6
		c0,0.5,0,1,0.1,1.4l-6.4,3.1c-1.4-8.4-7.5-19.1-7.5-19.1s-7.8,13.6-7.8,22.2c0,1.7,0.2,3,0.4,4.1l-1.9,0.9
		c-1.9-4.2-3.7-7.4-3.7-7.4s-3.2,5.6-5.5,11.8l-2.6,1.3c0.2-0.9,0.3-2,0.3-3.3c0-8.5-7.8-22.2-7.8-22.2s-7.8,13.6-7.8,22.2
		c0,6.3,1.9,8,4.6,8.5l-8,3.9c-0.8-5.5-5-12.8-5-12.8s-5.1,9-5.1,14.6c0,1.2,0.1,2.2,0.3,3L24.5,851.5H1400z"/>
	<path id="XMLID_26611_" class="st4" d="M1400,898V661.3c-0.8,1.9-1.6,4.3-1.8,6.2c-16.4,3.3-32.2,8.3-47,15.1
		c0.2-0.6,0.3-1.3,0.3-2.4c0-4.1-3.7-10.5-3.7-10.5s-3.7,6.5-3.7,10.5c0,3.6,1.3,4.1,3.1,4.1v0.2c-1.2,0.6-2.5,1.2-3.7,1.8
		c-1.1-3.5-3.1-7-3.1-7s-3.7,6.4-3.7,10.5l-6.8,3.3v-1.2c2.6-0.1,4.6-0.8,4.6-6.3c0-6.1-5.6-16-5.6-16s-5.6,9.8-5.6,16
		c0,5.5,2,6.2,4.6,6.3v2.2l-8.7,4.2v-1.2c1.7-0.1,3.1-0.5,3.1-4.1c0-4.1-3.7-10.5-3.7-10.5s-3.7,6.5-3.7,10.5c0,3.6,1.3,4.1,3.1,4.1
		v1.8l-15.8,7.7c-0.8-6.1-5.5-14.3-5.5-14.3s-5.6,9.8-5.6,16c0,1.5,0.2,2.7,0.4,3.5l-2.3,1.1c-0.5-4-3.6-9.5-3.6-9.5
		s-3.7,6.5-3.7,10.5c0,1,0.1,1.8,0.3,2.4L908.5,898H1400z"/>
	<path id="XMLID_26610_" class="st5" d="M0,725.3V895h728.2L421.4,745.9c0.1-0.5,0.2-1.2,0.2-2.1c0-4.1-3.7-10.5-3.7-10.5
		s-3,5.2-3.6,9.2l-5.8-2.8c1.9-0.4,3.3-1.6,3.3-6.1c0-6.1-5.6-16-5.6-16s-5.6,9.8-5.6,16c0,0.9,0.1,1.7,0.2,2.4L399,735
		c-1.7-4.5-4-8.5-4-8.5s-1.3,2.3-2.6,5.3l-1.4-0.7c0.2-0.8,0.3-1.8,0.3-3c0-6.1-5.6-16-5.6-16s-4.4,7.7-5.4,13.8l-4.6-2.2
		c0-0.3,0-0.6,0-1c0-4.1-3.7-10.5-3.7-10.5s-2.5,4.3-3.4,8.1l-51.6-25.1c0-0.3,0.1-0.6,0.1-1c0-4.1-3.7-10.5-3.7-10.5
		s-2.5,4.3-3.4,8.1l-2.5-1.2c1.3-0.2,2.1-1.1,2.1-4c0-4.1-3.7-10.5-3.7-10.5s-3.7,6.5-3.7,10.5c0,0.6,0,1.1,0.1,1.5l-3.8-1.8v-2
		c1.7-0.1,3.1-0.5,3.1-4.1c0-4.1-3.7-10.5-3.7-10.5s-3.7,6.5-3.7,10.5c0,3.6,1.3,4.1,3.1,4.1v1.3c-1.3-0.7-2.6-1.4-4-2.1
		c-0.5-4-3.6-9.6-3.6-9.6s-1.8,3.1-2.9,6.4c-36.4-16.9-79.5-23.4-121.1-19.4c0-0.4,0.1-0.8,0.1-1.2c0-4.1-3.7-10.5-3.7-10.5
		s-3.7,6.5-3.7,10.5c0,0.8,0.1,1.5,0.2,2c-1.7,0.2-3.5,0.4-5.2,0.7v-1.6c1.7-0.1,3.1-0.5,3.1-4.1c0-4.1-3.7-10.5-3.7-10.5
		s-3.7,6.5-3.7,10.5c0,3.6,1.3,4.1,3.1,4.1v1.8c-1.4,0.2-2.9,0.4-4.3,0.7c-0.8-3.9-3.5-8.8-3.5-8.8s-3.4,6-3.7,10.1
		c-16.4,3.3-32.2,8.3-47,15.1c0.2-0.6,0.3-1.3,0.3-2.4c0-4.1-3.7-10.5-3.7-10.5s-3.7,6.5-3.7,10.5c0,3.6,1.3,4.1,3.1,4.1v0.2
		c-1.2,0.6-2.5,1.2-3.7,1.8c-1.1-3.5-3.1-7-3.1-7s-3.7,6.4-3.7,10.5l-6.8,3.3v-1.2c2.6-0.1,4.6-0.8,4.6-6.3c0-6.1-5.6-16-5.6-16
		s-5.6,9.8-5.6,16c0,5.5,2,6.2,4.6,6.3v2.2l-8.7,4.2v-1.2c1.7-0.1,3.1-0.5,3.1-4.1c0-4.1-3.7-10.5-3.7-10.5s-3.7,6.5-3.7,10.5
		c0,3.6,1.3,4.1,3.1,4.1v1.8l-15.8,7.7c-0.8-6.1-5.5-14.3-5.5-14.3s-5.6,9.8-5.6,16c0,1.5,0.2,2.7,0.4,3.5l-2.3,1.1
		c-0.5-4-3.6-9.5-3.6-9.5s-3.7,6.5-3.7,10.5c0,1,0.1,1.8,0.3,2.4L0,725.3z"/>
	<path id="XMLID_712_" class="st6" d="M469.6,891.4l930.3-1.8v-32.4l-224.7-88.5l0-2.6c2.3-0.1,4-0.7,3.9-5.4
		c0-5.3-4.9-13.6-4.9-13.6s-4.8,8.4-4.7,13.7c0,4.7,1.7,5.3,4,5.3l0,2l-10.8-4.2l0-3.5c3.3-0.1,5.8-1,5.8-7.9
		c0-7.7-7.1-20.1-7.1-20.1s-7,12.4-7,20.1c0,6.9,2.5,7.8,5.9,7.9l0,2.5l-8.3-3.3c0.6-0.8,1-2.1,1-4.2c0-5.3-4.9-13.6-4.9-13.6
		s-4.8,8.4-4.7,13.7c0,0.3,0,0.5,0,0.8l-22.1-8.7c-1.4-3.7-3.3-6.9-3.3-6.9s-1.1,2-2.3,4.7l-4.4-1.7c-0.8-5.2-4.7-12-4.7-12
		s-2.4,4.3-3.8,8.7l-3-1.2c-24.4-10.8-50.6-18.1-77.3-22.1c0.5-0.8,0.7-2,0.7-3.8c0-5.3-4.9-13.6-4.9-13.6s-4.8,8.4-4.7,13.7
		c0,1.1,0.1,2,0.3,2.7c-1.4-0.2-2.9-0.3-4.3-0.5c1-1.1,1.6-3,1.6-6.5c0-7.7-7.1-20.1-7.1-20.1s-7,12.4-7,20.1c0,2.5,0.4,4.3,1,5.4
		c-2.2-0.2-4.4-0.3-6.7-0.4l0-1.8c2.3-0.1,4-0.7,3.9-5.4c0-5.3-4.9-13.6-4.9-13.6s-4.8,8.4-4.7,13.7c0,4.7,1.7,5.3,4,5.3l0,1.7
		c-4.1-0.2-8.3-0.3-12.4-0.3c-1.3-4.7-4.2-9.7-4.2-9.7s-2.9,5.1-4.1,9.8c-41,0.8-81.8,9.5-118.5,25.9l-22.1,8.8
		c-1.2-4.9-4.4-10.5-4.4-10.5s-4.8,8.4-4.7,13.7c0,0.2,0,0.3,0,0.5l-8.2,3.3l0-2.4c3.3-0.1,5.8-1,5.8-7.9c0-7.7-7.1-20.1-7.1-20.1
		s-7,12.4-7,20.1c0,6.9,2.5,7.8,5.9,7.9l0,3.4l-6.9,2.7c0-0.4,0.1-0.9,0.1-1.5c0-5.3-4.9-13.6-4.9-13.6s-4.8,8.4-4.7,13.7
		c0,2.7,0.6,4,1.5,4.7l-8.4,3.4l0-2.7c2.3-0.1,4-0.7,3.9-5.4c0-5.3-4.9-13.6-4.9-13.6s-4.8,8.4-4.7,13.7c0,4.7,1.7,5.3,4,5.3l0,3.3
		l-88.8,35.4l0-2c3.3-0.1,5.8-1,5.8-7.9c0-7.7-7.1-20.1-7.1-20.1s-7,12.4-7,20.1c0,6.9,2.5,7.8,5.9,7.9l0,3l-6.6,2.6
		c0.5-0.8,0.7-2,0.7-3.9c0-5.3-4.9-13.6-4.9-13.6s-4.8,8.4-4.7,13.7c0,4.7,1.7,5.3,4,5.3l0,0.4l-49.1,19.6c0.6-0.8,0.9-2.1,0.9-4.2
		c0-5.3-4.9-13.6-4.9-13.6s-4.8,8.4-4.7,13.7c0,4.7,1.7,5.3,4,5.3l0,0.7l-11.2,4.5l0-2.5c3.3-0.1,5.8-1,5.8-7.9
		c0-7.7-7.1-20.1-7.1-20.1s-7,12.4-7,20.1c0,6.9,2.5,7.8,5.9,7.9l0,3.5l-11.4,4.5l0-2c2.3-0.1,4-0.7,3.9-5.4
		c0-5.3-4.9-13.6-4.9-13.6s-4.8,8.4-4.7,13.7c0,4.7,1.7,5.3,4,5.3l0,2.7L469.6,891.4z"/>
	<g id="XMLID_1516_">
		<path id="XMLID_2458_" class="st7" d="M1309.8,865.6c-29.6,10.2-70.3,11.9-88.1,10.2c-17.8-1.7-58.4,0.3-76.2,0.6
			c-4,0.1-11.2,0-20.1,0c-2.8-18.3-3.2-51.3-3.7-57.4c-0.4-4.3,1.3-9.2,6.1-10.2c3.7-0.7,8.6,2.9,10.1,6.9c0.1,0.3,0.7,0.5,1.1,0.7
			c0.6-0.7,1.3-1.3,1.8-2c0.9-1.2-1.5-3.5,2-3.9c3.6-0.5,4.4,2.4,4.3,3.4c-0.3,2.7,6.7,3.4,2.8,6.9c-0.6,0.5,0.7,1.3,3.1,0.1
			c4.6-2.3,10.9-4.6,15,1.2c1.8-2.5-1.4-6.5,1.9-6.9c5-0.7,8.8-3.7,14.3-3.4c4,0.2,8.6,1,11.9-2.2c1.5-1.4,2.6,0.2,4,0.6
			c5.2,1.5,9.9,4.8,16.5,2.1c-2.4-2.3-6.7-1.2-8.9-3.3c2.2-1,7.1-0.9,5.2-4c-3.3-5.6,2.1-4.8,5.9-5.5c6.3-1.2,12.5,1,18.6-0.1
			c3.8-0.7,8.4-3.1,11.3-1.5c7.1,3.9,11.1,0.6,15.9-3.5c-5.7-0.4-11.4,0-16-2.5c1-1.5,2.8-1.5,4.7-2c10.7-2.6,20.8,2.4,32.3-0.5
			c9.4-2.4,19.8-1.3,29.8-5.2c7.4-2.8,5.6-4.7,1.5-6.4c-3.6-1.5-0.4-1.9-0.1-2.8c1.4-4.3,5.1-6,10.5-6c2.1,0,4.7-0.3,4.9-2.3
			c0.4-4.7,0.3-4.5,4.5-6.7c2.2-1.1,5.4-1.6,6.2-3.9c-1.6-1.9-4.6,0.4-6.3-1.4c3.9-3.1,6.3-6.5,8.8-11.4c-5.9,3.4-7.7,9.4-15.3,8.4
			c-1.9,7.3-7.2,5.8-13,3.7c-1.4-0.5-4,0.1-2.2,2.4c2.1,2.8-0.1,5.1-3,6.4c-2.2,1-4.5,1-5.6-2.1c-0.6-1.8-2.9-0.3-4.8,1.3
			c-8.5,7.2-15.9,7-22.1-0.1c-2.8,2.6-6.2,3.8-10.3,5c-5.9,1.7-6.8-0.6-7.9-4c-1.4,1.1-2.2,1.7-2.9,2.3c-2,1.7-4.3,4.1-7,1.6
			c-1.5-1.4-0.3-3.9,1.3-5.7c1.9-2.1,4.9-2.8,7.8-2.9c1.4,0,3.4,0.8,4.2-0.3c3.3-4.2,7.3-2.2,11.4-1.6c2.1,0.3,4.9,2.8,6.3-0.6
			c1-2.4-0.7-3.1-4-3.6c-5.6-0.8-4.4-5.4-3.5-7.8c1.2-3.3,5.6-1.6,8.6-0.8c1.4,0.4,2.5,1.4,3.8,2c7.3,3.5,8.9,3.3,14.8-1.6
			c-1.4-1.4-3.4-0.4-5-0.4c-2.4,0.1-4.2-0.5-4.5-2.4c-0.4-2.2,1.1-3.6,3.9-3.7c2.8-0.2,5.2-1.4,8.5-1.2c4.2,0.3,9.3-1.2,13.4-3.5
			c-4-3.4-8.2-0.3-12.4-0.6c8.5-5.5,22.2-3.5,27.9-12.8c-4.9-1.3-7.6,2.9-11.9,3.4c-5.5,0.6-8.4-1-8.7-6.2c-2,1.6-3,2.5-4.2,3.2
			c-6.2,3.9-11.3,9.2-21,7.6c-3.2-0.5-8.2-2.4-8.9-1.7c-4.1,3.4-10.2,2.8-14.1,5.2c-4.3,2.7-8.2,2.2-14.5,2.3c4.6-3,7.6-5,10.6-6.9
			c-2-2-4.5-2.7-6.5-0.6c-5,5.3-11.3,3.2-17.3,2.6c-3.3-0.3-6.4-1.7-5.5-4.5c0.6-1.9-0.3-5.9,5.1-5.2c4.5,0.6,7.5-2.1,9.7-4.1
			c4.7-4.4,9.3-2.5,13.6-1c1.8,0.6,3.4,1.4,4.4,0.2c6-7.4,13-3,19.2-1.4c5,1.3,4.4-3,7.4-3.4c0.9-0.1,1.7-2.4,0.8-2.3
			c-3.7,0.4-5.6-3-9-2.2c-9.1,2.2-18.1-1.4-27,0.6c-1.3-3.5,5.1-3.5,4.8-6.8c-0.7-7.7-0.6-7.9,7.9-6c4.2,0.9,7.1,2.1,7.1-3.3
			c0-2.6,3-3.3,6.3-1.9c2.1,0.9,1.9,3.9,5.4,3.4c1.6-3.5-4.2-11.4,7.9-8.3c0.4,0.1,1.8-0.9,2.1-1.6c3.4-7.7,11.9-9.7,10.1-13.1
			c-3.9,1.8-7.5,6.1-12.2,5.1c-6.7-1.5-10.2,1.5-13.8,4.9c-4.1-3.4-3.5-3.1-6.6,0.5c-2.4,2.7-4.3,6.7-10.8,5.4
			c-6.3-1.3-12.2,0.9-18.1,3.6c-6,2.7-12.4,0.5-12.2-3.3c0.1-1.2,1.6-2.6-0.8-3.4c-2-0.7-2.6,0.8-3.7,1.5c-2,1.2-4.1,2.2-6,3.8
			c-6.7,5.8-13.8,5-17-1.7c5.5-0.3,10.7-0.5,16.7-0.8c-4-2.7-11.4-2.7-9-7.3c2-3.8,7.7-1.8,11.8-0.6c0.7,0.2,1.4,0.4,2.1,0.5
			c5.9,0.6,11.7,0.8,17.4-1.4c-4.9,0-8.7-2.5-13.4-3c-2.5-0.2-4.6-2.8-6.6-4.4c-0.1-0.1,1.3-2.1,2-2.1c6.3-0.5,12.1-3.4,18.9-2.1
			c5.2,1,11,0.9,15.9-2.3c-5.4,0.6-10-1.8-15-2.1c-1.2-0.1-2.3-0.7-2.4-1.7c0-0.4,1.1-1.3,1.3-1.3c4.7,1.5,4.1-1.1,3.8-3.3
			c-0.3-1.9,0.6-2.5,2.8-2.7c3-0.2,5.5,0.3,8.3,1.4c3.1,1.1,7.2,4.9,11.1,0.5c-3.2-2.5-10.9-1.3-10-5.5c1-4.4,6.3,0,8.9-0.5
			c7.3-1.4,14.2-0.1,22.2-0.4c-5-2.7-9.1-5.4-14.8-4.8c-1.8,0.2-3.4-0.6-3.4-1.7c0-0.9,1.5-2,3.2-2c4.2,0,8.4-1.6,12.5-0.5
			c3.8,1,5.6-0.7,8.1-3.3c-4.9-0.1-8.9,0.1-12.7-1.3c2.4-3,11.6-1.5,8.3-8.1c1.2-0.3,2.4-0.6,3.6-0.8c2-0.3,3.9-0.4,5.9-0.6
			c-9.9-2.1-5.5-5.6-1.7-9.1c1.6-1.5,3.8-3,2-5.3c-4.1,0.4-5.8,7.1-11.5,3.2c-0.1-0.1-0.8,0.4-1.1,0.7c-2.5,3.3-2.4,8.7-9.6,8.5
			c0,0.2,0.1,0.4,0,0.6c-3,5-10.6,8.4-16.6,7.3c-1.2,7.4-2,7.9-11.4,5.9c-1.9-0.4-3.1,0.4-4.7,1.2c-4.4,2.5-9.7,3.5-13.3,7.2
			c-2.6,2.7-7.7,1.1-7.8-2.2c-0.2-4.6-3.8-9.9,3.4-13.4c0.1-0.1-0.1-0.7-0.3-1.5c-5.6,0.3-11.3,0.6-17,1c-2.5,0.2-4-0.4-3.5-2.6
			c0.4-1.6-1.9-4.3,1.5-4.6c8-0.6,16.2-5.9,24.1-0.3c1.1,0.8,1.9,0.9,2.8-0.2c0.9-1-0.1-1.7-0.7-1.8c-10.8-2.3-4.7-9.6-7-15.7
			c3.9,3.4,9.3,1.1,11.9,5.7c1.1,2,4.2-3.5,7.9-4c1.2-0.2-1-1.8-2.5-2.2c-2.3-0.7-3.8-2.3-2.3-4.2c0.7-1,3-2.5,4.6,0.1
			c0.4,0.7,2.7,0.6,3.2-0.3c2.9-4.9,7.6-4.9,12.9-4.3c1,0.1,2.6,0.2,3.1-1c0.4-1.2-0.8-2.2-1.8-2.3c-3.4-0.2-7.5-0.6-6.7-4
			c0.5-2.2,5.1-0.9,7.8-1.6c0.4-0.1,0.8-0.3,1.1-0.4c0.3-2.4-5.3-2-3.7-3.3c3.2-2.5,5.5-19.5,3.8-18c-3.7,3.4-2.1,9-7.7,11.2
			c-1.1,0.4-2.2,1.8-3.5,0.3c-0.8-0.9,0-1.7,0-2.4c0.2-3.3-8.9-2-11.8,2.3c-1.3,1.9-1.1,5.6-4.4,6c-4,0.5-8.2-0.6-9.2-5
			c-0.4-1.9-2.2-1.9-2.9-0.6c-2.9,5.4-11.1,5.2-14.1,10c-2.7,4.4-6.6,4.3-11.3,3.7c0.6-3.6,2.7-5.5,6.7-6.1c4.4-0.6,2.8-4.8,5.5-6.7
			c0.6-0.4-1.4-1.2-2-0.8c-4.7,2.6-10.9,4-14.4,6.6c-11.1,8.2-11.1,9.2-20.3,11.3c0-1-0.5-1.9,0.6-2.8c3.9-3,7.7-6.2,11.7-9.1
			c1.1-0.8,2-1.1,1.1-2.2c-0.8-0.9-2.3-2.4-3.4-1.2c-4.4,4.8-9,0.5-13.8,1.1c1.9-5.3,6.4-5.6,10.5-4.7c2.9,0.6,4.3,0.7,5.4-1.7
			c0.9-2,3.8-2,5.4-3.4c-3-2.7-7.2-2.1-10.9-2.9c5.9-5.7,5.7-5.3,12.8-2c3.1,1.4,7.5,0.9,10.9-0.7c1.9-0.9,2.4-2.4-0.8-3.2
			c-1.6-0.4-4.8-0.7-3.6-3.4c0.9-2,3.3-0.9,5-1.2c2.1-0.4,4.1,0.5,6.1,0.6c2.7,0.2,7.5-0.9,5.1-4.1c-1.8-2.5-1.8-2.6,1-3.4
			c1.9-0.6,3.6-2,5.5-2.4c8.2-1.5-0.4-4.7,1-5.9c2.1-1.9,8.6-0.5,5.5-5.9c-0.8-1.4-0.8-2.4-0.2-3.9c0.5-1.2,3-3,0.3-4
			c-2-0.7-2.8,1.4-3.7,2.6c-3.8,5.1-5.8,5.3-10.2,1.3c-1.7,0.2-1.2,1.6-1.7,2.4c-2.4,4.3-5,6.7-9.4,1.6c-1.2-1.4-1.8-1-2.9,0.4
			c-0.9,1.2-2.7,2-4.3,2.6c-6.3,2.1-14.1,0.5-19,6.2c-1.4,1.6-3,0.9-4-0.4c-1.1-1.3-1.1-2.8,0.4-3.8c1.4-1,3.4-1.3,4.7-2.4
			c3.7-3.2,10.5-0.5,12.8-4.4c1.6-2.6,4.7-3.4,5.7-3.3c7.3,0.6,6-7.4,11.4-8.2c-2.3-2.8,0.6-3.4,2.4-4.7c0.7-0.5,0.6-1.8,0.9-2.7
			c-0.7-0.1-1.8-0.4-2-0.2c-3.3,4.5-10.9,2.8-14,7.7c-1.7,2.7-5.2,3.5-8.8,3c1.4-2.4-3.6-5.4-0.9-6.3c5-1.7,6.3-7.3,12-7.6
			c9.1-0.4,15.6-5.8,22.8-9.8c1.3-0.7,2.7-0.8,2.2-2.8c-1.3-5.6-2.9-11.2,2.1-17.9c-6.1,2.4-8.9,5.4-11.7,8.6c-2,2.3-5.4,2.2-8.2,3
			c-1,0.3-1.4-0.7-1.4-1.6c0-2.8,2.2-3,4.5-3.6c1.2-0.3,2.6-1.6,1.8-2.9c-0.7-1.2-2.7-0.8-3.8-0.4c-3.8,1.6-7.5,3.4-11.3,5.1
			c-1.6,0.7-3,0.6-4.3-0.6c-1.4-1.2-0.9-2.6,0.3-3c4.6-1.3,5.5-5.6,8.6-8.1c5.4-4.4,10.4-8.7,18.5-9.4c-2.9-4.3-5.6-7.7-9.6-2.3
			c-1.7,2.3-3.5,3-5.2,2c-2.3-1.4-0.1-3,0.9-4.6c1.3-1.9,0.1-3.6-0.2-3.1c-1.6,1.9-6.9-1.1-6.3,4.1c0.3,2.6-12,8.3-14.8,7.2
			c-1.1-0.4-1.5-1-1.3-2.6c0.3-3.5-1.8-6.8-5.6-7.6c-2.3-0.5-2.3-2.2-3.6-3c1-1.1,1.8-2.8,3-3c3.3-0.6,5-4.3,9.1-3.3
			c2.2,0.6,2.6-1.3,2-2.7c-0.5-1.2-1.2-2.8,0.2-2.9c8.5-0.6,10.7-9.4,19.7-11.8c-9.5,1-4.6-4.1-5-7.2c-8.9,4.8-15.9,12.4-27.2,11
			c-1.3-0.2-3.1,0.4-3.6-0.8c-0.6-1.2,0.9-2.1,2.2-2.2c2.7-0.3,3.2-1,1.3-2.9c-0.5-0.5-2.5-1.8-0.4-1.9c7.7-0.4,10.1-8.1,16.7-10
			c0.9-0.3,0.5-1.6,0.7-2.4c0.4-1.9,0.6-4.5,3.9-4.7c1.3-0.1,2.5-1.1,1.6-1.8c-2.7-2.2,0.1-4.5-0.4-6.8c-4.8,1.2-8.3,3.5-11.1,7.1
			c-5.1,6.7-17.9,10.8-26.1,8.5c0.2-0.3,0.4-0.7,0.7-1c1.1-1.3,2.2-0.6,3.4,0c1.1,0.5,3.3,0.7,3.2-0.8c-0.4-5.3,4.4-6,8.4-7.7
			c-10.8-6,2.4-8.8,1.2-13.7c-4.3,1.3-8.7,2.6-13,3.8c-3.7,1-6.9-0.7-8.1-3.3c-1.3-2.9,2.6-3.5,4.6-4.9c4.2-2.9,9.9-3.4,13.8-7.1
			c-3.6-0.6-7-0.6-10.4-0.3c-1.7,0.1-3.3-0.4-3.8-1.7c-0.7-1.9,1-2.8,2.8-3.3c4.1-1.1,8.2-2.3,12.3-3.5c-1.7-5.1-9.9,0.3-10.3-6.2
			c-0.4,0.1-0.8,0.2-1.2,0.3c-3,1.1-7.6,0.4-7.7-1.5c-0.2-3.7-4.5-4.5-4.3-7.7c0-1,2-2.1,0.1-2.9c-1.5-0.7-2.8,0.1-3.9,1.4
			c-3.5,4.1-7.8,1.9-11.9,1.5c5.5-0.2,8.6-4.8,13.6-6c6.5-1.6,7.3-6.2,2.7-9.9c-0.6-0.5-1.3-1.3-1.3-1.9c0.1-5.2-2.6-2.5-4.2-1.3
			c-2.7,2.2-6.5,0.6-9.1,2.9c-1.4-2.1-5,0.4-5.8-2.3c-1-3.4,2.6-3.9,4.6-4.7c2.6-1,5.3-2.1,8.4-1.7c1.2,0.2,3.1,0.7,3.2-1.7
			c0.1-2.3-1.6-1.8-3-1.9c-1.5-0.2-3.3,0.8-4.6-0.8c0.4-2.4,2-2.9,4.1-2.9c1.6,0,4.2,0.2,3.1-2.2c-1.4-3.3,2.5-7.8-2.4-10
			c-1.5-0.7-3.9-2.7-4.9-0.5c-2.7,5.8-7.3,2.1-12.4,3.6c4.4-3.3,7.3-5.6,10.4-7.7c1.2-0.8,2.2-2.2,0.8-2.2c-5.1-0.2-1.9-4.5-3.9-6.4
			c-2,0.8-4.1,1.7-6.7,2.8c0.6-6.4,6.8-7.5,9.2-12.5c-4.9,5-8.8-0.4-13.3-0.1c-1.9,0.1-4.3-0.4-4.7-2.7c-0.6-3.3,2.8-1.3,3.8-2.3
			c4-3.9,9.4-6.9,10.8-14c-2.6,1.4-4.6,1.2-6.7,2.5c-3.3,2.1-7.2-0.5-9-2.7c-1.6-2,2.4-2.9,4.1-4c2.8-1.8,4.4-4.4,6.9-8.3
			c-4.3,2.2-7.1,2-9.3-1.1c-2.7-3.8-0.2-6,2.3-8.2c2.2-1.9,3-4.2,3.1-7.2c-1.8,0.1-2.4,4.8-4.9,1.2c-0.3-0.5-1.3-1.4-1.5,0
			c-0.3,1.7-0.1,3.7-2.6,1.8c-2.2-1.6-3.4-4.1-1.8-6.3c1.5-2.1,2.2-5.2,5.4-5.9c0.4-0.1,1.4-0.9,0.5-1.8c-0.8-0.8-1.1-1-1.9,0.4
			c-1.4,2.3-2.9,0.7-4.3-0.6c-1.4-1.3-1.5-2.2-0.5-4.1c1.2-2.2,5.8-5.9-1.3-6.8c-0.6-0.1-0.7-0.5-0.1-0.8c0.3-0.2,0.9-0.2,1-0.4
			c2.6-4,2.5-3.8-0.7-5.5c-1.1-0.6-3.3-2-2-3.7c1.1-1.3-0.4-3.9,2.3-4.3c1.3-0.2,2.3-1.7,1.8-3.4c-0.8-2.5-1.9,0.4-3.1,0
			c-2.9-1.1-1.8-2.7-0.6-4.1c3.3-3.8-1.2-8,0.6-11.8c-5.2-2-1.1-8.7-5.1-11.4c-0.3-0.2,1.6-2.7-0.7-2.9c-1.6-0.1-1.6,1.7-1.8,3.1
			c-0.6,4.8-1.5,9.7-2.2,14.5c-0.2,1.1,0.3,2.3-1.5,2.7c-4.3,1-1.5,3,0,3.4c6.2,1.7,1,5.9,0.6,6c-5.9,0.6-2.2,5.2-3,7.7
			c-0.2,0.6,0.7,1.6-0.5,2.4c-3.1,1.9-3.1,1.9,0.1,3.8c1.1,0.7,2.6,1.3,1.7,3.2c-0.9,1.9-2.1,0.7-3.3,0.4c-0.7-0.2-1.5,0.1-2.3,0.2
			c-0.2,3.7,8.3,9-3.3,10.5c10.6,1.2,5,8.6,6.7,13.7c-2.9,0-5.7-0.1-8.4,0c-0.7,0-1.6,0.2-2,0.7c-0.6,0.7-0.1,1.8,0.7,2
			c3.5,0.7,2.2,2.6,1.1,4.3c-1.1,1.6,0.7,1.2,1,1.8c0.9,1.8,3.9-0.1,4.1,3c-1.3,0.8-4.1,0.1-4.4,2.1c-0.2,2,1.8,1.9,3.4,2.2
			c1.4,0.2,1.2,1.7,0.8,2.5c-0.7,1.7-1.4-0.2-2.2-0.2c-1.2,0.1-2.4-0.3-2.5,1.6c-0.1,1.7,0.7,2,2.2,2.1c3.7,0.1,5.7,2,6.4,6.1
			c-4.9-0.8-9.5-1.9-15.4-0.7c4.2,1.7,4.5,5.8,6.3,7.5c2.8,2.6,8.2,2.7,0.7,6.1c-0.9,0.4-0.9,2.3,1,3.2c2.7,1.2-0.5,2.5-0.4,4
			c0.1,0.7-1.5,1.2-1.8,0.4c-1.2-3-3.4-2.6-5.4-1.4c-3.1,1.8,3,3.2,0.5,5.3c-3,0.6-6.1-0.1-9.3-0.3c4.1,3.1,6.7,9.1,13.7,5.8
			c-0.4,3.8-5.5,0.4-4.8,3.5c0.9,3.9-1,3.4-3.4,3.5c-1.7,0.1-3.5,0.6-5,3.5c5.6-0.7,8.7,0.5,3.7,5.8c1.5,0.2,2.3,0.4,3.1,0.4
			c2-0.1,4.2-4.8,5.8-0.6c1.3,3.5-1.6,6.4-5.3,6.5c-5.2,0.1-10,2.1-15.1,2.5c-1.3,0.1-1.9,0.5-1.9,1.8c0,1.2,0.4,2.1,1.8,1.8
			c4.9-1.1,6.7,3.4,10,5.2c1,0.6,4,0.6,3.1,3c-0.8,2-2.9,1.8-4.9,1.9c-5.7,0.3-10.3-4.1-16.2-3.9c0.8,1.3,1.8,2.4,2,3.6
			c0.7,3.8,5.1,8.5,8.4,8.3c1.3-0.1,4.1-1.1,3.5,0.1c-1.2,2.2,2.4,5.4-2.2,6.8c-2.8,0.8-5.4,0.5-8.1,0.7c-1.6,0.1-3.4-0.2-3.9,1.9
			c3.3,0.4,2,6.8,5.2,5c5.7-3.3,8.9,1.7,13.6,1.9c-3.9,1.6-6.8,3.9-9.4,6.6c3.2,2.6,5.9-1.5,8.8,0.1c-5.6,6.7-20.7,9.2-28.1,7.1
			c-1.8-0.5-3.1-1.1-4.6,0.2c-0.7,0.6-1,1.1-0.7,2.1c1.4,4.9-0.3,7.6-5.8,9c-1.1,0.3-1.1,1-1.5,1.6c-1.5,2.1-3.5,3.6-6.5,3
			c-1.3-0.2-2.6-0.2-2.7,1.6c-0.1,2.3,1.7,2.2,3,2c2.7-0.5,5.1-0.3,7.4,1.1c-0.9,3.3-5.4,3.8-5.6,7.4c-0.1,1.8-4.5,2.1-2.4,4.4
			c1.5,1.7,3.9,0.2,6-0.2c2.7-0.5,6.3-0.8,8.4,0.4c2,1.2,0,4.5-0.3,7.4c4.8-1.5,8.5-4.2,13.4-3.3c-0.2,2.2-6.1,3.1-1.2,5.8
			c1.9,1,3.1,2.6,1.6,4.5c-1.3,1.8-3.5,0.6-5,0.9c-7,1.5-10.8-9.3-18.5-3.8c-0.2,0.1-0.9-0.2-1.1-0.5c-3-4.5-9.4-0.9-12.7-4.7
			c-0.6-0.7-1.7-0.1-1.9,0.8c-0.2,0.9-0.5,2.1,1,2.5c2.3,0.7,4.6,1.5,6.6,2.2c0.1,2.3-3.4,1.4-2.5,3.4c0.6,1.4,2.3,0.5,3.5,0.7
			c4.1,0.8,4.9,5.9,9.4,6.5c-0.3,0.5-0.6,1.2-1,1.3c-1.3,0.3-2.2,0.9-1.4,2c0.6,0.9,2.1,0.9,3,0.3c4.8-2.9,9.3-0.6,15.2,0.1
			c-2.1,1.8-5.4,2.8-3.5,4.8c2.4,2.5,2.7-1.3,4-2c2.8-1.3,4.6-0.3,6.8,0.5c1.3,0.4,4.5-0.8,3.1,2.1c-0.9,2-1,6.9-4.8,5
			c-6.2-3.1-12.5-2.2-18.8-2.6c-7.8-0.4-15.1-3.3-23-3.1c-0.3,3,4,3.7,3.7,6.3c-0.5,4.1,2.2,3.9,4.9,3c1.3-0.4,2.5-0.6,3.8-0.6
			c1.3,0,2.5,0.6,2.6,1.6c0.2,1.6-1.4,0.7-2.2,0.9c-1.8,0.6-1.5,2-0.9,3c0.8,1.3,2.8,1.1,3.5,0.3c2.9-3.2,6.4-1.8,8,0.2
			c3.5,4.4,6.9,6.3,12.4,1.6c0.2,5.2-7.3,4.2-6.6,8.7c2.9,1,4.7-2.7,7.7-1.5c-4.1,6.7-12.7,1.6-17.7,5.7c0,0-0.4-0.2-0.5-0.3
			c-4.2-2.9-8.4-5.7-12.6-8.7c-3.5-2.5-5.6-8.3-11.8-3.8c-0.5,0.3-1.8,0.1-2.6-0.2c-5.6-2.6-4.3,1.2-3.4,3.3
			c1.8,4.2,8.8,4.3,9.8,9.4c0.4-0.2,0.7-0.5,1.1-0.7c2.6-1,4,1.2,5.4,1.6c0.7,2.5-5.4,5.5,0.5,6.6c3.4,0.6,6.1,3.3,10.3,2.3
			c2.5-0.6,5.4,1.5,5.4,4.7c-13.5,0.9-22.9-7-32.9-13.1c-1.5,2.2,1.4,3.8,0.8,5.9c-0.6,2.3-3.6,6.1,2.3,5.8c4.1-0.2,5,3.7,8.5,3.5
			c0.9-0.1,1.4-2.1,2.4-0.6c0.7,1,0.2,2.4-1.2,3.1c-2.2,1.2-4.9,1.1-6.5,0c-5-3.4-11.8-4.2-15.4-9.9c-1.2-2-2.1-5.6-5.8-7
			c-0.8,3.1,2.5,7.8-0.4,8.4c-8,1.6,2.8,6.1-1.9,7.5c1.4,3.4,4.5-0.8,6.4,1.3c-0.3,0.5-0.4,1.1-0.8,1.6c-0.7,1.1-3.4,1.6-1.7,3.3
			c1.2,1.2,3.1,0.7,4.2-0.5c1.3-1.3,2.8-1.2,4.4-1c4,0.3,6,3.6,6.9,5.9c1,2.8-2.7,2.7-5.3,2.8c-1.8,0.1-4.3-2.5-5.2,0.2
			c-0.6,1.8,3,1.9,4.3,3.3c0.4,0.4,1.1,0.5,1.6,0.7c-0.3,3.1-6.8,0.4-5.1,4c1.3,3,4.4-0.3,6.7-0.2c1.1,0.1,1.7,0.4,2.1,0.9
			c1.7,1.9,3.6,1.5,4.4-0.2c1.5-3.2,5-2.3,7.4-4.3c0.6,3.3-4.6,4-2.2,7.1c0.5-0.2,1-0.6,1.6-0.6c2-0.2,4.3-2.6,5.7,0.4
			c1.4,3.1-2.4,2.5-3.7,3c-3.1,1.2-5.4,2.4-6,5.5c2.7,1.8,5.2,0,7.9-0.2c-0.7,2.8-2.2,3.8-5.2,3.4c-2.5-0.4-4.8-0.4-7.2,1.2
			c-3.2,2.3-5.9,2.2-5.6-2.5c0.1-1.1,0.9-2.5-1.1-3.1c-1.4-0.4-2.9-0.1-3.7,1.1c-2.4,3.5-2.9,1.4-3.4-0.9c-0.3-1.4,0.9-3.1-1-4.6
			c-3.1,1.4-6.3,5-7.4-1.7c-0.8-4.9-8.3,0.6-10.3-3.8c-0.5,0.4-1,0.8-1.6,1.2c2.9,2,0.4,8.2,7.4,7.6c-5.7,1-2.8,8.6-9.1,9.3
			c11.1-0.6,20.2,5,31.9,5.5c-3.3,1.6-5.6,2.1-6.1,4.7c2.4-0.4,4.6,0.5,7.1-0.5c2.1-0.9,6.5-1.7,7-1.1c3.4,4.7,6.2,1.2,9-0.1
			c1.3-0.6,2.2-1.5,3.6-0.2c0.8,0.8,1.8,1.6,0.8,2.6c-1.1,1.2-2,2.7-0.5,3.7c1.8,1.2,3.4-0.1,4.9-1.1c1.5-1,3.5-1.7,4.3,0.7
			c0.7,2.3,4.8,3.9,2.7,6.4c-1.4,1.7-4.3,1.3-6.2-0.4c-1.2-1.2-2.6-1.9-4.3-1.3c-1,0.4-3.2,1.3-1.2,2.4c4.8,2.9,2.7,8.5,8.8,12.2
			c-9.9,0.1-17-0.7-21.8-7.2c-1.1-1.4-2.4-1.1-4.3,0.3c-5.1,3.8-7.7,2.8-8.2-2.9c-0.3-3.5-1-4.8-4.7-1.9c-3.6,2.8-6.8,1.1-9.4-1.5
			c-2.1-2.2-4.6-3.4-7.8-2.6c-1.3,0.3-3.6,1.5-1.4,3c4.3,2.9,5.2,9,14.2,8.3c-3.7,1.6-5.3,2.3-8.5,3.6c6.3,0.5,9.3,7.8,15.3,2.1
			c0.6-0.6,1.6,0.4,1.7,1.3c0.1,0.8,1.7,1.6,0.2,2.6c-1.3,0.8-2.4,1.7-4.1,2.2c-1.9,0.5-3,2.1-2.1,3.9c0.8,1.6,2,1.9,4.5,1.4
			c4.9-1,7.1,2.4,9.1,5.8c-1,0.1-1.7,0.2-2.4,0.1c-2.4-0.1-5.8-0.5-5.9,1.9c0,2.2,3.3,3,5.9,3c3.6,0,6.6,1.1,10,2.8
			c-1.6,1.3-2.8,2.3-4,3.3c-1,0.9-2.1,1.5-3.8,1.5c-1.6-0.1-3.8,0.9-2.4,2.3c3.2,3.2,6.4-0.1,9.6-0.5c0.6-0.1,1.3,0,2,0
			c-0.9,3.7-3.4,5-7.6,4.4c-3.1-0.4-6.3-0.4-9.5-0.5c-3.5-0.1-6.1-0.5-7.9-3.9c-1.8-3.3-5.4-4.6-9.6-1.6c-2.3,1.7-5,0.7-6.8-1.4
			c-1.4-1.6-2.6-3.4-3.8-5.1c-0.6-0.9-0.3-2.7-2.6-1.9c-2.2,0.7-1.4,1.9-0.9,3.3c0.4,1.1,2.1,2,1,3.3c-7.5,2.3-4.9-3.7-6.3-5.9
			c-1.1-1.7-1.2-4.5-3.4-1.7c-3.5,4.3-5.8,0.6-8.3-0.4c-4.7-1.9-9.1-4.3-13.7-6.5c1.1,4.1,2.9,7,7.9,7.1c7,0,5.2,8.5,11.8,9
			c-2.7,3.6,0.3,3.2,2.9,2.7c2.3-0.5,3.7,1.2,5.7,1.3c-1,1.3-1.7,2.9-3.1,3.7c-1.4,0.8-3.2,0.9-2.7,2.8c0.5,2.1,2.7,1.4,4.2,1.5
			c2.1,0.1,4.4,1.1,6.3-0.4c1.7-1.4,3.5-2.1,5.7-0.5c2.1,1.5,0.8,3.4,1,5.2c0.2,1.4-3.2,2.3-0.9,3.6c1.8,1,4.3,1.1,6-0.6
			c1.9-1.9,3.3-0.2,5,0.4c2.5,0.8,1.8,2.8,1.2,3.6c-2.1,2.6-0.5,7.1-6.1,7.9c-1.8,0.3-2.5,2.2-1.4,3.5c1.1,1.4,3,1,4.5,0
			c2.7-1.9,5.8-2.8,9.4-2.2c3.5,0.6,5.2,3.3,2.6,4.7c-4.1,2.3-10,5.6-14.5,2.8c-6.8-4.3-10.6,1.6-16,0.8c2,1.2,3.5,2.7,5.9,2.7
			c8.9,0.2,9.2,0.7,5.9,8c3.7,0.2,7.1,0.4,10.4,0.6c0.2,2.6-5.3,1.2-3.4,3.9c1.2,1.7,3.5,0.2,5.3-0.4c5.7-1.9,10.9-1.1,17.2,2.2
			c-6.8,1.7-11,6.5-17,7.4c-8.2,1.1-15-4.1-22.2-6.6c-3.9-1.4-7.1-4.9-12.1-5.8c-0.1,2.9,2.2,4.2,4.4,5.8c1.5,1.1,1.6,2.8-0.1,3.6
			c-0.6,0.3-2.2,1.6-3.6,0.2c-0.6-0.6-11.9-6.2-12.4-6c-5.3,1.9-6.1-2.1-6.2-4.1c-0.1-2.8-3.1-1.3-4.5-2.8
			c-3.2-3.6-4.7-3.2-10.1-4.7c-2.5-0.7-4.4-1.1-6.4-2.5c-2.4-1.6-4.4-6.3-7-4.3c-2.6,1.9,2.3,4.2,4.5,6.1c1.7,1.4,0.9,3.3,2.1,5.3
			c2.2,3.7,2.4,3.7,3.5,5.9c1.4,2.7-10,7.4-12.6,8.7c-1.3,0.7-3.8-0.9-4.4,2c4.5,2,14-1.9,15.9,7.2c1.6,1.6-11.7,5.9-8,6.9
			c3.7,1,9.7-1.3,14-3.3c3.3-1.4,6-1,8.5,1.1c3,2.5,0.2,3.8-1.5,5.3c-1.7,1.5-4.8,2.5-2.5,5.3c5.8-4.4,5.8-4.3,14.5-6.1
			c0.4,3,0.7,5.8-3.1,7.4c-1.9,0.8-4.8,1.3-3.1,3.6c1.6,2.2,4,0.1,6-0.1c4.9-0.5,9.9-6.2,14.9,0.9c0.8,1.1,5.2,0.3,4.6,3.9
			c-0.6,3.2-4.3,5.7-6,5.6c-6.1-0.5-7.7,2.5-9.6,5.7c4.1,1.8,7.9-0.9,11.9-0.1c1.5,0.3,3.7-0.6,4.2,1.6c1.7,7-7.4,13.8-16.7,12.1
			c-4-0.7-8.2-1.8-9.8-5.5c-3.8,1.7-7.4,2.7-12.4,1.7c-3.1-0.6-4.4-4.9-6.2-3.1c-4.7,4.6-7.7,0-10.4-1.3c-4-1.9-7.6-4.4-12.2-5.5
			c-0.9-0.2-7.3-5.8-8.2-5.9c-6.9,0-10.8-4.9-16.5-7.1c-1.5,2.8-1,4.6,2.7,5.4c2,0.4,3.9,1.7,3.3,2.8c-2,3.6,0.1,1.9,2.5,1.9
			c3.6-0.1,9.1-1.4,8.2,4.9c-0.3,1.8,3.4,3.7,6.7,3.8c2.4,0.1,5.6-0.4,4.8,3c-0.9,3.7,4.3,1.6,5.5,3.6c-3.3,2.9-9.5-0.2-12.6,3.3
			c8.9,4.3,17.2-1.3,25.7,0.9c0.6,0.2,1.4-1.4,2.3-0.5c0.5,0.5,0.5,1.9,0,2.3c-1.6,1.2-2.9,2.5-5.6,2.7c-5.2,0.6-9.7,3.1-15.2,2.9
			c0.7,2.6,4.3,1.4,4.3,2.8c0.2,5.5,2.3,2.4,4.7,1c9.4-5.2,19.4-7.9,31-4.4c-0.7,6.9-8.9,4.1-13.7,6.3c10,1.7,19.9,2.2,30,1.3
			c-0.8,2.4-6.6,2-4.7,4.6c1.6,2,5.1,0.4,7.8-0.1c1.3-0.2,2.7-0.2,5-0.4c-3.2,3.1-5.5,5.3-10.9,5.1c-7-0.3-13.9-6-20.5-0.6
			c1.3,0.2,3.2,0,4.8,0.6c10.5,4.3,20.8,5.9,30.8,0c1-0.6,2.6-0.6,3.6,0.2c1.1,0.8,0.9,2.1,0.1,2.8c-1.6,1.4-1.5,4.9-6.3,2.8
			c-1.3-0.6-3.5,1.3-4.2,2.9c-0.1,0.3,1.9,1.6,2.1,1.5c2.8-1.6,7.4,0.6,9.2-1.9c2.5-3.5,3.2-4.9,9.9-2.5c4.1,1.5,7.2,4.4,11.8,5.3
			c1.8,0.3,1.7,2.2-0.7,3.5c-7.5,4-15.6,6.2-25.1,5.3c8.5,3.2,17.3,3,26.1,2.3c0.7,2-0.9,2.8-2.6,3.2c-2,0.4-5.6-0.3-4,2.4
			c1.5,2.5,4.2,1.3,6.5,0c2.5-1.4,5.4-2.1,8.7-1.7c2,0.2,2.8,0.8,2.6,2.3c-0.2,1.1,0.5,2.7-2.1,2.6c-6.4-0.1-9.6,6.9-17.2,4.1
			c-3.2,4-7,2-11,0.7c-1.8-0.6-3.6-0.2-4.1,1.6c-2.3-1.5-5.8,4.4-7.6-0.8c-0.4-1.1,0.7-2.5-1.8-2.8c-2.5-0.3-4.4,0.5-4.6,2.4
			c-0.3,3.3-3.3,1.7-5.3,1.8c-3.8,0.1-1.1-1.5-1.4-2.5c-0.7-2.4-2.7-3.3-4.3-0.7c-1.2,1.9-2.8,1.2-4.5,1.4
			c-7.7,0.5-9.7-3.4-10.5-9.6c-4.1,5.4-7.5,4-11,0.7c-1.1-1.1-2.8-1.8-4.3-2.6c-0.9-0.5-1.9-0.9-2.6,0.1c-0.3,0.5-0.6,1.5-0.3,1.7
			c6.8,3.8-0.9,4.4-3.2,6.7c4.6,0.6,8.1,1.1,11.5,1.6c1.3,1.9-3.1,2.9-0.4,5c3,2.4,4-0.3,5.9-0.7c3.8-0.9,6.7,1.4,5.8,4.4
			c-0.4,1.4,0.4,1.7,1.9,2c2.9,0.6,5.6-0.2,9.2-0.3c-5.5,2.6,3.6,6.8-2.4,9.4c-0.6,0.3,0.7,1.5,1.9,1.4c5.6-0.5,11.3-3.8,16.6,1.1
			c0.2,0.2,1,0,1.5-0.2c8.3-3,8.3-3,14.7-1.8c-0.8,2.5-4.3,0.8-5.9,2.1c-0.4,0.4-1.1,1-1,1.3c0.2,0.5,1.4,1.3,1.5,1.2
			c3.1-1.8,5.8,1,8.6,0.5c1.2-0.2,2.5-1.4,3.3,0c1,2-1.3,1.6-2.8,1.7c-1.8,0.1-3.4,0.9-3.3,2.1c0.1,2.3,2.8,1.4,4.3,1.5
			c6.1,0.4,13.1-2.8,17.8,3.3c0.4,0.5,3.6,0.5,4.5-0.1c8.1-5.2,17.7-0.4,26.2-2.1c0.8-0.2,2.1,1,3.1,1.5c-5,3.8-10.5,3.8-16.6,1.6
			c-1.6-0.6-5-2.3-5.6,0.5c-0.9,3.8-3.3,3.4-7.1,2.6c-3.6-0.8-6.7,0.6-11.3,2.3c6,1.5,12.5,0.4,13.4,6c0.1,0.7,2,0.3,2.7-0.3
			c5.7-5.4,15.1,0,21.2-4c5.9,5.9,12.7,0.9,19,1.1c0.5,0,1,0.2,1.5,0.4c-0.7,1.8-5,3.3-2.2,5.1c1.4,0.9,3.9-1.4,5.4-3.1
			c2.4-2.6,5.2-5.1,8.3-7.2c2.1-1.5,3.8-4.8,7-3.7c4.4,1.6-0.8,4.2-0.1,6.3c0.1,0.3,0.4,0.6,0.9,1.2c4.3-3.2,8.2-6.5,14.7-7.3
			c4.9-0.6,8.3-0.1,8.6,3.9c0.5,5.7-1.3,41.3-3.9,58.1c-26.3-0.2-53.9-0.4-61.3,0.3c-13.6,1.1-56.7-8.7-83-9.3
			c-9.7-0.2-31.6,0.6-56.8,2c0.3-5.5,0.7-11.5,0.7-11.5s9.7-6.9,11.3-12.9c1.6-5.9,13.3-28.7,12.5-40.4s-10.8-34.9-15.1-37.6
			c-4.3-2.8-12.3-9.1-17-8.9c-4.8,0.2-41.3,1.6-45.1-1.5c-3.8-3-15.4-12.4-19.4-16c-4-3.5-4-3.5-4-3.5s-0.4-3.4,1.4-4.8
			c1.8-1.4,3.8-3.3,3.7-5.3c-0.1-2-1.6-7.3-2.9-8.5c-1.2-1.2-1.9-2.1-2-2.2c1-0.9,3.8-4,5.3-5.5c2.7-2.7,4.1-4.9,6.1-9.7
			c2-4.8,2.1-10.1,2.2-15.2c0.1-5.1,0.2-10.2,0.3-15c0-4.9-1-9.4-2.3-13c-1.4-3.6-3.2-6.3-4.6-8.1c-1.4-1.7-2.4-2.5-2.4-2.5
			s1,0.8,2.3,2.6c1.3,1.8,3,4.5,4.1,8.2c1.2,3.6,1.9,8,1.6,12.7c-0.4,4.8-0.8,9.8-1.1,14.9c-0.4,4.8-0.9,9.7-2.6,13.6
			c-0.9-0.9-2-2.3-3-4c-2.1-3.8-3.1-10.3-4.2-16.6c-0.6-3.1-0.9-6.4-1.8-9.4c-0.9-2.9-2.3-5.5-3.7-7.5c-2.8-4.1-5.5-5.9-5.5-5.9
			s2.6,2.1,4.9,6.2c1.2,2.1,2.2,4.6,2.9,7.5c0.7,2.8,0.7,6,1,9.3c0.5,5.9,0.9,11.8,2.6,16.6c-0.7-0.2-1.5-0.4-2.4-0.7
			c-2.2-0.6-4.7-1.2-7.5-1.7c-1.4-0.2-2.6-0.5-4-0.9c-1.4-0.4-2.7-0.8-4.1-1.3c-11-4-21.5-9.5-21.5-9.5s9.9,6.4,20.7,11.5
			c1.4,0.6,2.7,1.2,4.1,1.8c1.3,0.5,2.9,1,4.2,1.4c2.6,0.7,5,1.5,7.1,2.3c3.7,1.3,6,2.4,6.4,2.7c0.3,0.4,0.6,0.8,0.8,1.1
			c0.3,0.4,0.3,1.1,0.1,1.6c-1.8,2.3-3.3,3.4-5.5,4.9c-2.1,1.6-4,3-5.5,4.2c-0.9-0.2-2-0.4-3.1-0.4c-4.3-0.1-6.6,0.2-6.6,0.2
			s-0.6,3.9-1.8,5.7c-1.2,1.8-4.9,5.9-4.9,5.9s-4.7-0.2-7.7,0.9c-3,1.1-5.7,2-5.7,2l-1.3,0.6c-0.1-0.7-0.1-1.4-0.2-2.2
			c-0.3-1.3-0.7-2.6-1.4-3.9c0-0.6-0.1-1.2-0.1-1.9c-0.2-2.2-0.8-5-1.5-7.7c-1.5-5.5-3.7-10.6-3.7-10.6s1.2,5.5,1.5,10.9
			c0.1,1.6,0.1,3.1,0.1,4.6c-0.5-0.4-1-0.8-1.7-1.2l-1.5-0.8l-1.9-0.7c-0.8-0.2-1.5-0.4-2.3-0.5c-0.3-0.2-0.8-0.5-1.8-1.3
			c-1.3-1-3.2-2.4-5.2-4.3c-2-1.9-4.2-4.4-6-7.3c-0.9-1.5-1.7-3.1-2.2-4.8c-0.6-1.7-0.9-3.4-1.1-5.4c-1.1-7.6-1.4-15.4-1.3-21.2
			c0.1-5.8,0.7-9.6,0.7-9.6s-0.9,3.8-1.4,9.6c-0.6,5.8-0.8,13.6-0.2,21.4c0.1,1.8,0.3,4,0.8,6c0.5,2,1.3,3.8,2.1,5.5
			c1.8,3.4,3.9,6.2,6,8.5c0.4,0.5,0.8,0.9,1.3,1.3c-0.6,0-1.2,0-1.9,0.1c-2.5-0.4-4.8-1-7.1-1.9c-1.9-0.9-3.7-1.9-5.3-3.3
			c-1.6-1.3-2.9-3-4.2-4.7c-2.5-4.5-4.5-9.2-6.1-14.1c0.2-2.2,0.7-4.1,1.3-5.3c0.7-1.4,1.4-2,1.3-2c0.1,0-0.8,0.5-1.6,1.9
			c-0.6,0.9-1.1,2.4-1.6,4c-0.2-0.5-0.4-0.9-0.5-1.4c-1.6-6-2.7-12.2-2.1-18.4c-1,6.2-0.3,12.6,1,18.7c0.3,1.3,0.7,2.5,1.1,3.8
			c-0.4,2.6-0.5,5.6-0.1,8.8c0.2,1.7,0.5,3.5,1,5.2c0.5,1.7,1.2,3.6,2,5.2c0.8,1.7,2.5,3.5,4.1,4.5c1.7,1.1,3.4,1.8,5.1,2.4
			c3.4,1.1,6.6,1.6,9.4,1.9c5.5,0.6,9.3,0.4,9.3,0.4l0,0c1.4,0.3,2.8,0.7,4.1,1.2l1.2,0.5l1.4,0.9c0.4,0.4,1.3,1.1,1.8,1.8
			c1.1,1.4,1.8,3.1,2,4.9c0.1,0.8,0.1,1.7,0.1,2.5c-8.9-5.8-17.2-8.3-24.5-5.4c-1.2,0.5-1.8,2-1.3,3.2c5.3,13.5,14.5,17.9,26,16.6
			c0,0,0.6,7-3.6,12c-2.4,2.8-4,5.2-4.9,6.6c-0.6,1-0.4,2.3,0.6,3l8.1,6.3c0.7,0.6,1.7,0.6,2.6,0.2c1.3-0.8,3.4-1.8,4.8-1.9
			c2.2-0.1,5.3,0.3,5.3,0.3s5.3,11.3,12.6,20.1c7.3,8.8,16.1,15.2,16.1,15.2s5.7,15.2,9,20.6c3.3,5.4,8.4,14.2,8.4,14.2
			s-0.4,5.2-0.6,9.9c-0.1,3.4,0.5,15.7,0.9,22.5c-24.2,1.6-45.5,3.1-56.3,4c-30.5,2.7-65,1-72.8,0c-2.9-0.4-5.6-0.5-7.6-0.5
			c-0.6,0-1.7,0-3.5,0.2c-0.5,0-0.7,0.1-0.7,0.1v0c-0.5,0.1-1.1,0.1-1.7,0.2c-7.8,1-42.3,2.7-72.8,0c-30.5-2.7-144.8-10-171.1-9.4
			c-26.3,0.6-69.5,10.4-83,9.3c-13.6-1.1-94,0.3-111.8,0c-17.8-0.3-58.4-2.3-76.2-0.6c-17.8,1.7-58.4,0-88.1-10.2
			c-29.6-10.2-87.6-7.9-90.2-7.9v121.7h700h700V857.7C1397.5,857.7,1339.5,855.5,1309.8,865.6z M744.1,709.5
			c-1.4-0.7-2.4-1.5-3.3-2.9c-2.7-4.2-4.1-9.3-4.5-13.8c1.1,3.5,2.5,7,4,10.3l0,0l0,0.1c1.2,2,2.6,3.9,4.3,5.6
			c0.7,0.7,1.5,1.3,2.3,1.9C746,710.4,745,710,744.1,709.5z M852,851.1c0,0-1-2,1.9-8c2.9-6,5-3.7,5-3.7l5.2,17.2l2.5,13.8
			c-4.6,0.3-9.1,0.5-13.6,0.8L852,851.1z"/>
		<path id="XMLID_2460_" class="st7" d="M978.4,530.6c-0.3,0-0.6,0-0.9,0C977.8,530.7,978.1,530.6,978.4,530.6z"/>
	</g>
	<linearGradient id="XMLID_3_" gradientUnits="userSpaceOnUse" x1="700.0024" y1="9.689" x2="700.0024" y2="981.0199">
		<stop  offset="0" style="stop-color:#D7C8A6"/>
		<stop  offset="0.3371" style="stop-color:#ABBAA5"/>
		<stop  offset="0.534" style="stop-color:#94AD9D"/>
		<stop  offset="0.6685" style="stop-color:#8BA89A"/>
		<stop  offset="1" style="stop-color:#2D4C56"/>
	</linearGradient>
	<rect id="XMLID_26616_" x="0" y="-0.5" class="st8" width="1399.9" height="980"/>
	<text id="XMLID_2367_" transform="matrix(1 0 0 1 70.1343 98.4919)" class="st9 st10 st11 st12">lorem ipsum dolor set amet</text>
	<rect id="XMLID_16_" x="70.1" y="142.9" class="st13" width="607.8" height="310.4"/>
	<text id="XMLID_2425_" transform="matrix(1 0 0 1 70.1345 152.0642)"><tspan x="0" y="0" class="st9 st10 st14">Lorem</tspan><tspan x="38" y="0" class="st9 st10 st14"> </tspan><tspan x="41.6" y="0" class="st9 st10 st14">ipsum</tspan><tspan x="77.7" y="0" class="st9 st10 st14"> </tspan><tspan x="81.2" y="0" class="st9 st10 st14">dolor</tspan><tspan x="112.8" y="0" class="st9 st10 st14"> </tspan><tspan x="116.3" y="0" class="st9 st10 st14">sit</tspan><tspan x="130.5" y="0" class="st9 st10 st14"> </tspan><tspan x="134" y="0" class="st9 st10 st14">amet,</tspan><tspan x="167.1" y="0" class="st9 st10 st14"> </tspan><tspan x="170.7" y="0" class="st9 st10 st14">consectetur</tspan><tspan x="241.3" y="0" class="st9 st10 st14"> </tspan><tspan x="244.8" y="0" class="st9 st10 st14">adipiscing</tspan><tspan x="304.3" y="0" class="st9 st10 st14"> </tspan><tspan x="307.8" y="0" class="st9 st10 st14">elit.</tspan><tspan x="329.7" y="0" class="st9 st10 st14"> </tspan><tspan x="333.2" y="0" class="st9 st10 st14">Etiam</tspan><tspan x="366.5" y="0" class="st9 st10 st14"> </tspan><tspan x="370.1" y="0" class="st9 st10 st14">nec</tspan><tspan x="391.2" y="0" class="st9 st10 st14"> </tspan><tspan x="394.7" y="0" class="st9 st10 st14">facilisis</tspan><tspan x="437.8" y="0" class="st9 st10 st14"> </tspan><tspan x="441.4" y="0" class="st9 st10 st14">arcu,</tspan><tspan x="470.7" y="0" class="st9 st10 st14"> </tspan><tspan x="474.3" y="0" class="st9 st10 st14">ac</tspan><tspan x="487.5" y="0" class="st9 st10 st14"> </tspan><tspan x="491.1" y="0" class="st9 st10 st14">consectetur</tspan><tspan x="561.7" y="0" class="st9 st10 st14"> </tspan><tspan x="565.3" y="0" class="st9 st10 st14">magna. </tspan><tspan x="0" y="18" class="st9 st10 st14">Aliquam</tspan><tspan x="48" y="18" class="st9 st10 st14"> </tspan><tspan x="51.8" y="18" class="st9 st10 st14">facilisis,</tspan><tspan x="98.1" y="18" class="st9 st10 st14"> </tspan><tspan x="101.9" y="18" class="st9 st10 st14">risus</tspan><tspan x="130.5" y="18" class="st9 st10 st14"> </tspan><tspan x="134.4" y="18" class="st9 st10 st14">sit</tspan><tspan x="148.5" y="18" class="st9 st10 st14"> </tspan><tspan x="152.3" y="18" class="st9 st10 st14">amet</tspan><tspan x="182.3" y="18" class="st9 st10 st14"> </tspan><tspan x="186.1" y="18" class="st9 st10 st14">placerat</tspan><tspan x="234.4" y="18" class="st9 st10 st14"> </tspan><tspan x="238.3" y="18" class="st9 st10 st14">facilisis,</tspan><tspan x="284.5" y="18" class="st9 st10 st14"> </tspan><tspan x="288.3" y="18" class="st9 st10 st14">risus</tspan><tspan x="317" y="18" class="st9 st10 st14"> </tspan><tspan x="320.8" y="18" class="st9 st10 st14">elit</tspan><tspan x="339.2" y="18" class="st9 st10 st14"> </tspan><tspan x="343.1" y="18" class="st9 st10 st14">fermentum</tspan><tspan x="409.3" y="18" class="st9 st10 st14"> </tspan><tspan x="413.1" y="18" class="st9 st10 st14">mauris,</tspan><tspan x="456.9" y="18" class="st9 st10 st14"> </tspan><tspan x="460.7" y="18" class="st9 st10 st14">quis</tspan><tspan x="485.6" y="18" class="st9 st10 st14"> </tspan><tspan x="489.4" y="18" class="st9 st10 st14">vehicula</tspan><tspan x="538" y="18" class="st9 st10 st14"> </tspan><tspan x="541.8" y="18" class="st9 st10 st14">quam</tspan><tspan x="575.3" y="18" class="st9 st10 st14"> </tspan><tspan x="579.2" y="18" class="st9 st10 st14">diam </tspan><tspan x="0" y="36" class="st9 st10 st14">et</tspan><tspan x="11.8" y="36" class="st9 st10 st14"> </tspan><tspan x="15.6" y="36" class="st9 st10 st14">risus.</tspan><tspan x="47.7" y="36" class="st9 st10 st14"> </tspan><tspan x="51.4" y="36" class="st9 st10 st14">Quisque</tspan><tspan x="101" y="36" class="st9 st10 st14"> </tspan><tspan x="104.8" y="36" class="st9 st10 st14">laoreet,</tspan><tspan x="150.1" y="36" class="st9 st10 st14"> </tspan><tspan x="153.9" y="36" class="st9 st10 st14">mi</tspan><tspan x="168.4" y="36" class="st9 st10 st14"> </tspan><tspan x="172.1" y="36" class="st9 st10 st14">congue</tspan><tspan x="215.5" y="36" class="st9 st10 st14"> </tspan><tspan x="219.3" y="36" class="st9 st10 st14">pharetra</tspan><tspan x="270.9" y="36" class="st9 st10 st14"> </tspan><tspan x="274.7" y="36" class="st9 st10 st14">ornare,</tspan><tspan x="317.9" y="36" class="st9 st10 st14"> </tspan><tspan x="321.6" y="36" class="st9 st10 st14">mi</tspan><tspan x="336.2" y="36" class="st9 st10 st14"> </tspan><tspan x="339.9" y="36" class="st9 st10 st14">nisi</tspan><tspan x="360.4" y="36" class="st9 st10 st14"> </tspan><tspan x="364.2" y="36" class="st9 st10 st14">mattis</tspan><tspan x="401.1" y="36" class="st9 st10 st14"> </tspan><tspan x="404.8" y="36" class="st9 st10 st14">ex,</tspan><tspan x="421.8" y="36" class="st9 st10 st14"> </tspan><tspan x="425.6" y="36" class="st9 st10 st14">in</tspan><tspan x="436.5" y="36" class="st9 st10 st14"> </tspan><tspan x="440.3" y="36" class="st9 st10 st14">convallis</tspan><tspan x="491.1" y="36" class="st9 st10 st14"> </tspan><tspan x="494.9" y="36" class="st9 st10 st14">urna</tspan><tspan x="522.5" y="36" class="st9 st10 st14"> </tspan><tspan x="526.2" y="36" class="st9 st10 st14">sapien</tspan><tspan x="565.3" y="36" class="st9 st10 st14"> </tspan><tspan x="569.1" y="36" class="st9 st10 st14">cursus </tspan><tspan x="0" y="54" class="st9 st10 st14">est.</tspan><tspan x="21.4" y="54" class="st9 st10 st14 st15"> </tspan><tspan x="26.7" y="54" class="st9 st10 st14">Quisque</tspan><tspan x="76.3" y="54" class="st9 st10 st14 st15"> </tspan><tspan x="81.6" y="54" class="st9 st10 st14">hendrerit</tspan><tspan x="137.5" y="54" class="st9 st10 st14 st15"> </tspan><tspan x="142.8" y="54" class="st9 st10 st14">lectus</tspan><tspan x="178.1" y="54" class="st9 st10 st14 st15"> </tspan><tspan x="183.4" y="54" class="st9 st10 st14">at</tspan><tspan x="194.9" y="54" class="st9 st10 st14 st15"> </tspan><tspan x="200.2" y="54" class="st9 st10 st14">ligula</tspan><tspan x="231.7" y="54" class="st9 st10 st14 st15"> </tspan><tspan x="237" y="54" class="st9 st10 st14">mollis,</tspan><tspan x="275.1" y="54" class="st9 st10 st14 st15"> </tspan><tspan x="280.4" y="54" class="st9 st10 st14">a</tspan><tspan x="287.3" y="54" class="st9 st10 st14 st15"> </tspan><tspan x="292.6" y="54" class="st9 st10 st14">finibus</tspan><tspan x="332.1" y="54" class="st9 st10 st14 st15"> </tspan><tspan x="337.4" y="54" class="st9 st10 st14">nulla</tspan><tspan x="366.3" y="54" class="st9 st10 st14 st15"> </tspan><tspan x="371.6" y="54" class="st9 st10 st14">aliquam.</tspan><tspan x="422.2" y="54" class="st9 st10 st14 st15"> </tspan><tspan x="427.5" y="54" class="st9 st10 st14">Curabitur</tspan><tspan x="484.1" y="54" class="st9 st10 st14 st15"> </tspan><tspan x="489.4" y="54" class="st9 st10 st14">non</tspan><tspan x="512.4" y="54" class="st9 st10 st14 st15"> </tspan><tspan x="517.6" y="54" class="st9 st10 st14">ultricies</tspan><tspan x="564.8" y="54" class="st9 st10 st14 st15"> </tspan><tspan x="570.1" y="54" class="st9 st10 st14">turpis. </tspan><tspan x="0" y="72" class="st9 st10 st14">Morbi</tspan><tspan x="34.9" y="72" class="st9 st10 st14 st12"> </tspan><tspan x="39.1" y="72" class="st9 st10 st14">mattis</tspan><tspan x="75.9" y="72" class="st9 st10 st14 st12"> </tspan><tspan x="80.1" y="72" class="st9 st10 st14">porta</tspan><tspan x="112.3" y="72" class="st9 st10 st14 st12"> </tspan><tspan x="116.5" y="72" class="st9 st10 st14">diam</tspan><tspan x="145.7" y="72" class="st9 st10 st14 st12"> </tspan><tspan x="149.8" y="72" class="st9 st10 st14">dignissim</tspan><tspan x="205.6" y="72" class="st9 st10 st14 st12"> </tspan><tspan x="209.8" y="72" class="st9 st10 st14">tristique.</tspan><tspan x="263.2" y="72" class="st9 st10 st14 st12"> </tspan><tspan x="267.3" y="72" class="st9 st10 st14">Curabitur</tspan><tspan x="323.9" y="72" class="st9 st10 st14 st12"> </tspan><tspan x="328" y="72" class="st9 st10 st14">ac</tspan><tspan x="341.3" y="72" class="st9 st10 st14 st12"> </tspan><tspan x="345.4" y="72" class="st9 st10 st14">eros</tspan><tspan x="371.7" y="72" class="st9 st10 st14 st12"> </tspan><tspan x="375.9" y="72" class="st9 st10 st14">non</tspan><tspan x="398.8" y="72" class="st9 st10 st14 st12"> </tspan><tspan x="403" y="72" class="st9 st10 st14">magna</tspan><tspan x="442.6" y="72" class="st9 st10 st14 st12"> </tspan><tspan x="446.8" y="72" class="st9 st10 st14">elementum</tspan><tspan x="514" y="72" class="st9 st10 st14 st12"> </tspan><tspan x="518.2" y="72" class="st9 st10 st14">sodales</tspan><tspan x="563.4" y="72" class="st9 st10 st14 st12"> </tspan><tspan x="567.5" y="72" class="st9 st10 st14">dictum </tspan><tspan x="0" y="90" class="st9 st10 st14">eu</tspan><tspan x="14.9" y="90" class="st9 st10 st14 st12"> </tspan><tspan x="19.8" y="90" class="st9 st10 st14">massa.</tspan><tspan x="60.7" y="90" class="st9 st10 st14 st12"> </tspan><tspan x="65.6" y="90" class="st9 st10 st14">Vestibulum</tspan><tspan x="132.1" y="90" class="st9 st10 st14 st12"> </tspan><tspan x="137" y="90" class="st9 st10 st14">odio</tspan><tspan x="163.3" y="90" class="st9 st10 st14 st12"> </tspan><tspan x="168.2" y="90" class="st9 st10 st14">nisi,</tspan><tspan x="191.9" y="90" class="st9 st10 st14 st12"> </tspan><tspan x="196.8" y="90" class="st9 st10 st14">efficitur</tspan><tspan x="241.7" y="90" class="st9 st10 st14 st12"> </tspan><tspan x="246.6" y="90" class="st9 st10 st14">sit</tspan><tspan x="260.7" y="90" class="st9 st10 st14 st12"> </tspan><tspan x="265.6" y="90" class="st9 st10 st14">amet</tspan><tspan x="295.6" y="90" class="st9 st10 st14 st12"> </tspan><tspan x="300.5" y="90" class="st9 st10 st14">nunc</tspan><tspan x="329.8" y="90" class="st9 st10 st14 st12"> </tspan><tspan x="334.7" y="90" class="st9 st10 st14">eget,</tspan><tspan x="363.8" y="90" class="st9 st10 st14 st12"> </tspan><tspan x="368.7" y="90" class="st9 st10 st14">scelerisque</tspan><tspan x="436.2" y="90" class="st9 st10 st14 st12"> </tspan><tspan x="441.1" y="90" class="st9 st10 st14">fringilla</tspan><tspan x="485.4" y="90" class="st9 st10 st14 st12"> </tspan><tspan x="490.3" y="90" class="st9 st10 st14">urna.</tspan><tspan x="521.3" y="90" class="st9 st10 st14 st12"> </tspan><tspan x="526.2" y="90" class="st9 st10 st14">Phasellus</tspan><tspan x="582.3" y="90" class="st9 st10 st14 st12"> </tspan><tspan x="587.3" y="90" class="st9 st10 st14">sed </tspan><tspan x="0" y="108" class="st9 st10 st14">magna et risus dictum scelerisque. Curabitur et fermentum massa.</tspan><tspan x="0" y="144" class="st9 st10 st14">Aenean</tspan><tspan x="44.5" y="144" class="st9 st10 st14 st15"> </tspan><tspan x="49.8" y="144" class="st9 st10 st14">orci</tspan><tspan x="72.4" y="144" class="st9 st10 st14 st15"> </tspan><tspan x="77.7" y="144" class="st9 st10 st14">lorem,</tspan><tspan x="115.5" y="144" class="st9 st10 st14 st15"> </tspan><tspan x="120.8" y="144" class="st9 st10 st14">mattis</tspan><tspan x="157.7" y="144" class="st9 st10 st14 st15"> </tspan><tspan x="163.1" y="144" class="st9 st10 st14">eu</tspan><tspan x="177.9" y="144" class="st9 st10 st14 st15"> </tspan><tspan x="183.3" y="144" class="st9 st10 st14">arcu</tspan><tspan x="209.5" y="144" class="st9 st10 st14 st15"> </tspan><tspan x="214.8" y="144" class="st9 st10 st14">vitae,</tspan><tspan x="246.2" y="144" class="st9 st10 st14 st15"> </tspan><tspan x="251.6" y="144" class="st9 st10 st14">imperdiet</tspan><tspan x="309.1" y="144" class="st9 st10 st14 st15"> </tspan><tspan x="314.5" y="144" class="st9 st10 st14">bibendum</tspan><tspan x="374.8" y="144" class="st9 st10 st14 st15"> </tspan><tspan x="380.1" y="144" class="st9 st10 st14">nisl.</tspan><tspan x="404" y="144" class="st9 st10 st14 st15"> </tspan><tspan x="409.4" y="144" class="st9 st10 st14">Mauris</tspan><tspan x="449.8" y="144" class="st9 st10 st14 st15"> </tspan><tspan x="455.1" y="144" class="st9 st10 st14">rhoncus</tspan><tspan x="503.5" y="144" class="st9 st10 st14 st15"> </tspan><tspan x="508.9" y="144" class="st9 st10 st14">lobortis</tspan><tspan x="554.6" y="144" class="st9 st10 st14 st15"> </tspan><tspan x="560" y="144" class="st9 st10 st14">ipsum</tspan><tspan x="596.1" y="144" class="st9 st10 st14 st15"> </tspan><tspan x="601.4" y="144" class="st9 st10 st14">a </tspan><tspan x="0" y="162" class="st9 st10 st14">auctor.</tspan><tspan x="41.9" y="162" class="st9 st10 st14"> </tspan><tspan x="44.9" y="162" class="st9 st10 st14">Phasellus</tspan><tspan x="101" y="162" class="st9 st10 st14"> </tspan><tspan x="104" y="162" class="st9 st10 st14">et</tspan><tspan x="115.8" y="162" class="st9 st10 st14"> </tspan><tspan x="118.8" y="162" class="st9 st10 st14">ligula</tspan><tspan x="150.3" y="162" class="st9 st10 st14"> </tspan><tspan x="153.3" y="162" class="st9 st10 st14">sapien.</tspan><tspan x="195.8" y="162" class="st9 st10 st14"> </tspan><tspan x="198.8" y="162" class="st9 st10 st14">Sed</tspan><tspan x="220.8" y="162" class="st9 st10 st14"> </tspan><tspan x="223.8" y="162" class="st9 st10 st14">blandit</tspan><tspan x="265.2" y="162" class="st9 st10 st14"> </tspan><tspan x="268.2" y="162" class="st9 st10 st14">mi</tspan><tspan x="282.7" y="162" class="st9 st10 st14"> </tspan><tspan x="285.7" y="162" class="st9 st10 st14">gravida</tspan><tspan x="328.9" y="162" class="st9 st10 st14"> </tspan><tspan x="331.9" y="162" class="st9 st10 st14">nisi</tspan><tspan x="352.4" y="162" class="st9 st10 st14"> </tspan><tspan x="355.4" y="162" class="st9 st10 st14">posuere,</tspan><tspan x="407.5" y="162" class="st9 st10 st14"> </tspan><tspan x="410.5" y="162" class="st9 st10 st14">ac</tspan><tspan x="423.7" y="162" class="st9 st10 st14"> </tspan><tspan x="426.7" y="162" class="st9 st10 st14">ornare</tspan><tspan x="466.7" y="162" class="st9 st10 st14"> </tspan><tspan x="469.7" y="162" class="st9 st10 st14">orci</tspan><tspan x="492.2" y="162" class="st9 st10 st14"> </tspan><tspan x="495.2" y="162" class="st9 st10 st14">vestibulum.</tspan><tspan x="563.7" y="162" class="st9 st10 st14"> </tspan><tspan x="566.7" y="162" class="st9 st10 st14">Nullam </tspan><tspan x="0" y="180" class="st9 st10 st14">laoreet</tspan><tspan x="42.2" y="180" class="st9 st10 st14"> </tspan><tspan x="45.5" y="180" class="st9 st10 st14">libero</tspan><tspan x="80" y="180" class="st9 st10 st14"> </tspan><tspan x="83.3" y="180" class="st9 st10 st14">at</tspan><tspan x="94.9" y="180" class="st9 st10 st14"> </tspan><tspan x="98.3" y="180" class="st9 st10 st14">placerat</tspan><tspan x="146.6" y="180" class="st9 st10 st14"> </tspan><tspan x="150" y="180" class="st9 st10 st14">dictum.</tspan><tspan x="194.3" y="180" class="st9 st10 st14"> </tspan><tspan x="197.6" y="180" class="st9 st10 st14">In</tspan><tspan x="208.9" y="180" class="st9 st10 st14"> </tspan><tspan x="212.3" y="180" class="st9 st10 st14">nec</tspan><tspan x="233.4" y="180" class="st9 st10 st14"> </tspan><tspan x="236.8" y="180" class="st9 st10 st14">diam</tspan><tspan x="266" y="180" class="st9 st10 st14"> </tspan><tspan x="269.4" y="180" class="st9 st10 st14">sit</tspan><tspan x="283.5" y="180" class="st9 st10 st14"> </tspan><tspan x="286.8" y="180" class="st9 st10 st14">amet</tspan><tspan x="316.8" y="180" class="st9 st10 st14"> </tspan><tspan x="320.1" y="180" class="st9 st10 st14">nisi</tspan><tspan x="340.6" y="180" class="st9 st10 st14"> </tspan><tspan x="344" y="180" class="st9 st10 st14">tempor</tspan><tspan x="387.6" y="180" class="st9 st10 st14"> </tspan><tspan x="391" y="180" class="st9 st10 st14">ultricies</tspan><tspan x="438.2" y="180" class="st9 st10 st14"> </tspan><tspan x="441.5" y="180" class="st9 st10 st14">in</tspan><tspan x="452.5" y="180" class="st9 st10 st14"> </tspan><tspan x="455.9" y="180" class="st9 st10 st14">non</tspan><tspan x="478.9" y="180" class="st9 st10 st14"> </tspan><tspan x="482.2" y="180" class="st9 st10 st14">urna.</tspan><tspan x="513.2" y="180" class="st9 st10 st14"> </tspan><tspan x="516.6" y="180" class="st9 st10 st14">Mauris</tspan><tspan x="557" y="180" class="st9 st10 st14"> </tspan><tspan x="560.3" y="180" class="st9 st10 st14">pulvinar </tspan><tspan x="0" y="198" class="st9 st10 st14">massa</tspan><tspan x="37.5" y="198" class="st9 st10 st14"> </tspan><tspan x="40.9" y="198" class="st9 st10 st14">quis</tspan><tspan x="65.8" y="198" class="st9 st10 st14"> </tspan><tspan x="69.2" y="198" class="st9 st10 st14">magna</tspan><tspan x="108.9" y="198" class="st9 st10 st14"> </tspan><tspan x="112.3" y="198" class="st9 st10 st14">eleifend</tspan><tspan x="160.1" y="198" class="st9 st10 st14"> </tspan><tspan x="163.5" y="198" class="st9 st10 st14">rutrum.</tspan><tspan x="208.7" y="198" class="st9 st10 st14"> </tspan><tspan x="212.1" y="198" class="st9 st10 st14">Nulla</tspan><tspan x="242.6" y="198" class="st9 st10 st14"> </tspan><tspan x="246" y="198" class="st9 st10 st14">fringilla</tspan><tspan x="290.2" y="198" class="st9 st10 st14"> </tspan><tspan x="293.6" y="198" class="st9 st10 st14">diam</tspan><tspan x="322.8" y="198" class="st9 st10 st14"> </tspan><tspan x="326.3" y="198" class="st9 st10 st14">urna.</tspan><tspan x="357.3" y="198" class="st9 st10 st14"> </tspan><tspan x="360.7" y="198" class="st9 st10 st14">Aenean</tspan><tspan x="405.2" y="198" class="st9 st10 st14"> </tspan><tspan x="408.6" y="198" class="st9 st10 st14">pellentesque</tspan><tspan x="485.6" y="198" class="st9 st10 st14"> </tspan><tspan x="489" y="198" class="st9 st10 st14">est</tspan><tspan x="507" y="198" class="st9 st10 st14"> </tspan><tspan x="510.4" y="198" class="st9 st10 st14">sit</tspan><tspan x="524.6" y="198" class="st9 st10 st14"> </tspan><tspan x="528" y="198" class="st9 st10 st14">amet</tspan><tspan x="557.9" y="198" class="st9 st10 st14"> </tspan><tspan x="561.3" y="198" class="st9 st10 st14">nisi</tspan><tspan x="581.8" y="198" class="st9 st10 st14"> </tspan><tspan x="585.2" y="198" class="st9 st10 st14">lob</tspan><tspan x="603.9" y="198" class="st9 st10 st14">-</tspan><tspan x="0" y="216" class="st9 st10 st14">ortis</tspan><tspan x="27" y="216" class="st9 st10 st14"> </tspan><tspan x="30.5" y="216" class="st9 st10 st14">pretium.</tspan><tspan x="80.9" y="216" class="st9 st10 st14"> </tspan><tspan x="84.4" y="216" class="st9 st10 st14">Nam</tspan><tspan x="111.8" y="216" class="st9 st10 st14"> </tspan><tspan x="115.2" y="216" class="st9 st10 st14">fermentum,</tspan><tspan x="184.6" y="216" class="st9 st10 st14"> </tspan><tspan x="188.1" y="216" class="st9 st10 st14">est</tspan><tspan x="206.1" y="216" class="st9 st10 st14"> </tspan><tspan x="209.5" y="216" class="st9 st10 st14">ut</tspan><tspan x="221.8" y="216" class="st9 st10 st14"> </tspan><tspan x="225.3" y="216" class="st9 st10 st14">lobortis</tspan><tspan x="271" y="216" class="st9 st10 st14"> </tspan><tspan x="274.4" y="216" class="st9 st10 st14">pellentesque,</tspan><tspan x="354.6" y="216" class="st9 st10 st14"> </tspan><tspan x="358.1" y="216" class="st9 st10 st14">diam</tspan><tspan x="387.3" y="216" class="st9 st10 st14"> </tspan><tspan x="390.7" y="216" class="st9 st10 st14">arcu</tspan><tspan x="416.9" y="216" class="st9 st10 st14"> </tspan><tspan x="420.4" y="216" class="st9 st10 st14">faucibus</tspan><tspan x="470.4" y="216" class="st9 st10 st14"> </tspan><tspan x="473.9" y="216" class="st9 st10 st14">ipsum,</tspan><tspan x="513.2" y="216" class="st9 st10 st14"> </tspan><tspan x="516.6" y="216" class="st9 st10 st14">id</tspan><tspan x="527.7" y="216" class="st9 st10 st14"> </tspan><tspan x="531.1" y="216" class="st9 st10 st14">dapibus</tspan><tspan x="578.5" y="216" class="st9 st10 st14"> </tspan><tspan x="581.9" y="216" class="st9 st10 st14">ante </tspan><tspan x="0" y="234" class="st9 st10 st14">est</tspan><tspan x="18" y="234" class="st9 st10 st14"> </tspan><tspan x="21.6" y="234" class="st9 st10 st14">vel</tspan><tspan x="38.2" y="234" class="st9 st10 st14"> </tspan><tspan x="41.9" y="234" class="st9 st10 st14">risus.</tspan><tspan x="74" y="234" class="st9 st10 st14"> </tspan><tspan x="77.6" y="234" class="st9 st10 st14">Pellentesque</tspan><tspan x="154.5" y="234" class="st9 st10 st14"> </tspan><tspan x="158.2" y="234" class="st9 st10 st14">in</tspan><tspan x="169.1" y="234" class="st9 st10 st14"> </tspan><tspan x="172.8" y="234" class="st9 st10 st14">porttitor</tspan><tspan x="223.5" y="234" class="st9 st10 st14"> </tspan><tspan x="227.1" y="234" class="st9 st10 st14">mi,</tspan><tspan x="244.8" y="234" class="st9 st10 st14"> </tspan><tspan x="248.5" y="234" class="st9 st10 st14">vel</tspan><tspan x="265.1" y="234" class="st9 st10 st14"> </tspan><tspan x="268.7" y="234" class="st9 st10 st14">fringilla</tspan><tspan x="312.9" y="234" class="st9 st10 st14"> </tspan><tspan x="316.6" y="234" class="st9 st10 st14">ante.</tspan><tspan x="346.5" y="234" class="st9 st10 st14"> </tspan><tspan x="350.1" y="234" class="st9 st10 st14">In</tspan><tspan x="361.4" y="234" class="st9 st10 st14"> </tspan><tspan x="365.1" y="234" class="st9 st10 st14">venenatis</tspan><tspan x="422" y="234" class="st9 st10 st14"> </tspan><tspan x="425.6" y="234" class="st9 st10 st14">arcu</tspan><tspan x="451.8" y="234" class="st9 st10 st14"> </tspan><tspan x="455.5" y="234" class="st9 st10 st14">a</tspan><tspan x="462.4" y="234" class="st9 st10 st14"> </tspan><tspan x="466.1" y="234" class="st9 st10 st14">mi</tspan><tspan x="480.6" y="234" class="st9 st10 st14"> </tspan><tspan x="484.2" y="234" class="st9 st10 st14">lacinia,</tspan><tspan x="525.2" y="234" class="st9 st10 st14"> </tspan><tspan x="528.9" y="234" class="st9 st10 st14">vel</tspan><tspan x="545.5" y="234" class="st9 st10 st14"> </tspan><tspan x="549.1" y="234" class="st9 st10 st14">accumsan </tspan><tspan x="0" y="252" class="st9 st10 st14">augue</tspan><tspan x="36.4" y="252" class="st9 st10 st14 st15"> </tspan><tspan x="41.9" y="252" class="st9 st10 st14">semper.</tspan><tspan x="90.2" y="252" class="st9 st10 st14 st15"> </tspan><tspan x="95.7" y="252" class="st9 st10 st14">Integer</tspan><tspan x="138.2" y="252" class="st9 st10 st14 st15"> </tspan><tspan x="143.7" y="252" class="st9 st10 st14">felis</tspan><tspan x="167.9" y="252" class="st9 st10 st14 st15"> </tspan><tspan x="173.5" y="252" class="st9 st10 st14">augue,</tspan><tspan x="213" y="252" class="st9 st10 st14 st15"> </tspan><tspan x="218.6" y="252" class="st9 st10 st14">ultrices</tspan><tspan x="262.4" y="252" class="st9 st10 st14 st15"> </tspan><tspan x="268" y="252" class="st9 st10 st14">sed</tspan><tspan x="289.1" y="252" class="st9 st10 st14 st15"> </tspan><tspan x="294.7" y="252" class="st9 st10 st14">vehicula</tspan><tspan x="343.2" y="252" class="st9 st10 st14 st15"> </tspan><tspan x="348.8" y="252" class="st9 st10 st14">quis,</tspan><tspan x="376.9" y="252" class="st9 st10 st14 st15"> </tspan><tspan x="382.4" y="252" class="st9 st10 st14">eleifend</tspan><tspan x="430.2" y="252" class="st9 st10 st14 st15"> </tspan><tspan x="435.8" y="252" class="st9 st10 st14">condimentum</tspan><tspan x="518" y="252" class="st9 st10 st14 st15"> </tspan><tspan x="523.6" y="252" class="st9 st10 st14">tortor.</tspan><tspan x="562.1" y="252" class="st9 st10 st14 st15"> </tspan><tspan x="567.6" y="252" class="st9 st10 st14">Pellen</tspan><tspan x="603.9" y="252" class="st9 st10 st14">-</tspan><tspan x="0" y="270" class="st9 st10 st14">tesque nec lectus lectus. Praesent tempus euismod sapien, sed vehicula magna consectetur in.</tspan></text>
</g>
</svg>
